<?xml version="1.0" encoding="utf-8"?>
<!-- Generator: Adobe Illustrator 22.0.0, SVG Export Plug-In . SVG Version: 6.00 Build 0)  -->
<svg version="1.1" id="图层_1" xmlns="http://www.w3.org/2000/svg" xmlns:xlink="http://www.w3.org/1999/xlink" x="0px" y="0px"
	 viewBox="0 0 120.1 181.5" style="enable-background:new 0 0 120.1 181.5;" xml:space="preserve">
<style type="text/css">
	.st0{fill:#020202;}
	.st1{fill:#010101;}
	.st2{opacity:0.26;}
</style>
<path d="M24.2,80.1c0,23.8,0,47.7,0,71.5c0,5.4-2.6,8.4-7.5,8.4c-3,0-5.9,0-8.9,0c-4.5-0.1-7.2-3.1-7.2-8.1C0.6,104,0.6,56,0.7,8.1
	c0-5,2.8-8,7.2-8c3,0,6,0,9,0c4.7,0,7.3,2.9,7.3,8.2C24.2,32.2,24.2,56.1,24.2,80.1z"/>
<path d="M12,164.1c2.2,0.1,4.4,0.1,6.6,0.2c2.7,0.1,3.8,0.9,2.9,2.5c-0.7,1.2-1.4,2.4-2.1,3.6c-2.1,3.4-4.2,6.8-6.3,10.2
	c-0.3,0.5-0.5,1.1-1.6,1c-1-0.1-1.2-0.6-1.5-1.1c-2.6-4.7-5.2-9.4-7.7-14.2c-0.8-1.6,0.3-2.4,3-2.4C7.5,164,9.7,164,12,164.1z"/>
<path d="M112.5,162.6c-5.7-0.1-10-1.8-13.5-5.1c-29.2-27.7-58.4-55.4-87.6-83.1C5.8,69,4.9,60.9,8.9,54.8c1.2-1.9,2.3-2.9,4.2-0.6
	c0.8,1,1.8,1.8,2.8,2.6c1.5,1.1,1.9,2.2,1.1,4c-1.2,2.8-0.3,5.4,2,7.7c29,27.5,58.1,55.1,87.1,82.7c0.9,0.8,1.9,1.8,3,1.8
	c5,0.3,7.1,4,10.2,6.6c1.2,1,0.9,1.6-0.6,2C116.5,162.2,114.3,162.8,112.5,162.6z"/>
<path class="st0" d="M85.2,7.6c-0.7,0.5-1.3,0.8-1.7,1.2C66.7,25,49.9,41.2,33.1,57.4c-0.4,0.4-0.8,1.6-1.6,0.9
	c-0.7-0.7,0.4-1.2,0.9-1.6C49.1,40.6,65.8,24.4,82.5,8.3C83.1,7.7,83.6,6.9,85.2,7.6z"/>
<path class="st1" d="M42.2,76.8c0.3,0.5,0.4,1,0.8,1.4c24,23.1,47.9,46.2,71.9,69.3c0.4,0.4,1.5,0.7,0.8,1.6c-1.1,1.2-1.5-0.3-2-0.7
	C89.7,125.4,65.9,102.4,42,79.5c-0.3-0.3-0.7-0.6-0.9-0.9c-0.8-0.9,0.4-0.8,0.4-1.3C41.8,77.1,42,77,42.2,76.8z"/>
<path class="st0" d="M77.5,4.1c-0.7,0.4-1.3,0.7-1.6,1C61.7,18.2,47.7,31.3,33.6,44.4c-0.3,0.3-0.6,0.5-0.9,0.8
	c-0.3,0.3-0.6,0.3-0.8,0c-0.3-0.3-0.3-0.6,0-0.8c0.3-0.3,0.7-0.6,1-0.9C46.7,30.6,60.5,17.8,74.3,4.9C75,4.3,75.6,3.3,77.5,4.1z"/>
<g class="st2">
	<path class="st0" d="M10.7,180.2c1.4-0.1,2.5-0.1,3.3-0.3c33.1-6.9,66.1-13.8,99.2-20.7c0.8-0.2,1.8-1,3-0.1c1.2,0.9-1,0.8-1.8,0.9
		c-32.9,6.9-65.7,13.8-98.6,20.6C14.6,180.9,13.6,181.3,10.7,180.2z"/>
	<path class="st0" d="M10.4,180.1c0.1-0.1,0.2-0.2,0.4-0.3c0.1,0,0.2,0,0.2,0l0.1,0l0.4,0l0.8-0.1c0.6-0.1,1.1-0.1,1.6-0.2l3.3-0.8
		l6.6-1.5l13.2-3l26.4-6.1l26.4-6l13.2-3l6.6-1.5l3-0.7c0.2,0,1.1-0.6,2.4-0.6c0.7,0,1.4,0.2,1.9,0.5c0.3,0.1,0.5,0.3,0.7,0.5
		c0.1,0.1,0.2,0.1,0.4,0.4c0.1,0.1,0.2,0.2,0.3,0.3c0.1,0.2,0.3,0.5,0.4,0.8c0,0.1,0.1,0.3,0.1,0.6c0,0.3,0,0.6-0.1,0.8
		c-0.1,0.5-0.4,0.8-0.7,1.2c-0.4,0.4-0.8,0.6-1,0.6c-0.5,0.2-0.7,0.2-0.9,0.2c-0.4,0.1-0.7,0.1-1,0.1l-0.3,0c-0.1,0-0.1,0-0.1,0
		l-0.2,0l-0.8,0.2l-3.3,0.8l-6.6,1.5L90.8,168c-8.8,2-17.6,3.9-26.5,5.6L50.9,176c-4.5,0.7-8.9,1.6-13.4,2.2
		c-4.5,0.7-8.9,1.4-13.4,2l-6.7,0.9l-1.7,0.2c-0.5,0.1-1.2,0.2-1.8,0.2c-0.6,0-1.2-0.2-1.8-0.4c-0.3-0.1-0.6-0.2-0.8-0.3
		c-0.1-0.1-0.2-0.1-0.5-0.2C10.6,180.4,10.5,180.2,10.4,180.1z M11,180.2c0.2,0,0.3-0.1,0.3-0.2c0,0,0.2,0,0.3,0.1
		c0.3,0.1,0.5,0.1,0.8,0.2c0.5,0.1,1.1,0.1,1.5,0c0.5-0.1,0.9-0.2,1.5-0.4l1.6-0.5l6.5-1.9c4.4-1.2,8.7-2.4,13.1-3.5
		c4.4-1.2,8.8-2.2,13.1-3.3l13.2-3.1c8.8-2,17.6-3.9,26.5-5.5l13.3-2.5l6.7-1.3l3.3-0.6l0.8-0.2l0.2,0c0.1,0,0.3,0,0.4-0.1l0.5,0
		l0.7-0.1c0,0,0.1,0-0.1,0c0,0-0.3,0.1-0.6,0.4c-0.3,0.3-0.5,0.6-0.6,1c-0.1,0.2-0.1,0.5-0.1,0.7c0,0.3,0.1,0.4,0.1,0.5
		c0.1,0.2,0.2,0.5,0.3,0.6c0,0.1,0.1,0.1,0.1,0.2c0.1,0.1,0.1,0.1,0.1,0.1c0,0,0,0,0,0c0,0,0.2,0,0.2,0c0.2,0,0,0-0.8,0.3
		c-0.6,0.2-0.8,0.2-1.1,0.2l-0.8,0.2l-1.7,0.3l-6.6,1.3l-13.3,2.5l-26.6,5.1l-26.6,5l-13.3,2.5l-6.7,1.2l-3.3,0.6
		c-0.6,0.1-1.2,0.1-1.7,0.2l-0.8,0l-0.4,0l-0.1,0c0,0-0.1,0,0,0C11,180.4,11,180.3,11,180.2z"/>
</g>
<path d="M96.3,11.9c0,3.6-1.2,6.4-3.6,8.6C72.8,39.2,52.9,58,33.1,76.7c-3.8,3.6-9.7,4.3-14.1,1.8c-1.4-0.8-2.1-1.4-0.5-2.6
	c0.7-0.5,1.3-1.2,1.9-1.8c0.8-0.9,1.6-1.2,2.9-0.7c2.1,0.7,3.9,0.2,5.6-1.4C48.5,53.3,68.3,34.7,88,16.1c0.6-0.6,1.3-1.2,1.3-1.9
	c0.2-3.2,2.9-4.5,4.7-6.5c0.7-0.8,1.1-0.6,1.4,0.4C95.9,9.4,96.4,10.8,96.3,11.9z"/>
<path class="st1" d="M49.1,69.5c0.2,0.4,0.4,1,0.7,1.3c21.5,21.1,43,42.2,64.6,63.3c0.4,0.4,1.4,0.7,0.7,1.4c-1,1.1-1.4-0.2-1.8-0.7
	c-21.4-21-42.8-41.9-64.3-62.9c-0.3-0.3-0.6-0.6-0.8-0.9c-0.7-0.8,0.4-0.8,0.4-1.2C48.7,69.7,48.9,69.6,49.1,69.5z"/>
</svg>
